<?xml version="1.0" standalone="no"?>
<!DOCTYPE svg PUBLIC "-//W3C//DTD SVG 20010904//EN"
 "http://www.w3.org/TR/2001/REC-SVG-20010904/DTD/svg10.dtd">
<svg version="1.0" xmlns="http://www.w3.org/2000/svg"
 width="1024.000000pt" height="1024.000000pt" viewBox="0 0 1024.000000 1024.000000"
 preserveAspectRatio="xMidYMid meet">

<g transform="translate(0.000000,1024.000000) scale(0.100000,-0.100000)"
fill="#000000" stroke="none">
<path d="M6028 9505 c-245 -35 -480 -129 -711 -284 -571 -383 -1043 -1097
-1231 -1864 -53 -215 -116 -621 -116 -749 0 -20 -4 -39 -9 -42 -14 -9 -266 13
-350 30 -192 38 -359 107 -473 193 -164 125 -239 295 -209 479 15 90 8 116
-35 126 -14 4 -41 2 -60 -4 -75 -25 -120 -128 -111 -259 6 -99 28 -162 86
-247 118 -174 360 -304 676 -363 119 -23 300 -41 406 -41 l66 0 6 -272 c9
-372 45 -688 139 -1227 25 -145 35 -161 104 -161 89 0 120 38 179 220 178 547
427 919 635 947 53 7 83 -2 125 -39 51 -44 77 -102 161 -349 78 -234 112 -310
180 -405 80 -114 185 -175 314 -182 206 -12 393 136 538 424 43 86 122 270
122 285 0 13 -42 28 -58 21 -7 -2 -41 -62 -76 -133 -83 -168 -159 -281 -244
-361 -140 -131 -244 -143 -326 -35 -41 53 -73 143 -132 366 -30 114 -64 233
-76 266 -71 197 -180 285 -363 293 -78 4 -101 1 -170 -23 -236 -79 -443 -295
-641 -669 -49 -94 -59 -106 -66 -87 -15 42 -47 297 -59 471 -11 168 -7 618 7
666 5 18 18 23 77 33 179 29 442 107 653 194 661 271 1396 856 1748 1390 267
407 349 815 214 1069 -70 131 -250 254 -446 304 -123 32 -330 40 -474 19z
m387 -119 c212 -37 376 -146 422 -279 36 -105 14 -307 -57 -520 -106 -318
-390 -730 -713 -1031 -500 -466 -1053 -783 -1599 -916 -64 -16 -136 -32 -161
-35 l-43 -7 12 114 c62 540 189 994 399 1423 335 686 839 1162 1322 1249 103
19 317 20 418 2z"/>
<path d="M1125 4024 c-276 -43 -454 -248 -455 -522 -1 -333 245 -533 605 -494
113 12 227 44 255 72 12 12 20 40 25 87 4 37 9 76 11 86 4 13 -1 17 -24 17
-24 0 -31 -5 -36 -26 -10 -38 -85 -114 -136 -137 -59 -27 -175 -28 -248 -3
-177 60 -282 269 -253 503 14 112 43 183 102 247 67 74 128 100 239 100 47 1
105 -5 130 -12 63 -19 124 -84 141 -151 10 -42 17 -51 35 -51 20 0 22 5 27
113 6 132 8 128 -97 153 -70 16 -262 27 -321 18z"/>
<path d="M1678 4004 c-15 -14 7 -42 40 -50 60 -15 62 -24 62 -356 0 -171 4
-318 11 -347 22 -106 96 -181 217 -223 55 -18 87 -22 182 -22 180 1 277 42
341 143 58 90 62 118 68 459 l6 314 24 19 c13 10 34 19 47 19 19 0 24 5 24 25
l0 25 -145 0 -145 0 0 -24 c0 -19 7 -25 35 -30 25 -5 40 -16 52 -39 16 -28 18
-64 18 -327 -1 -320 -4 -342 -60 -416 -84 -110 -327 -125 -426 -25 -64 63 -69
99 -69 455 0 171 4 316 8 322 11 16 48 34 71 34 16 0 21 6 21 25 l0 25 -188 0
c-104 0 -191 -3 -194 -6z"/>
<path d="M2840 3986 c0 -19 6 -25 34 -30 18 -4 41 -15 52 -27 17 -19 17 -31 0
-354 -24 -469 -26 -476 -99 -501 -18 -6 -33 -18 -35 -27 -3 -15 12 -17 152
-17 143 0 156 1 156 18 0 13 -13 21 -45 30 -34 9 -48 19 -55 37 -6 17 -5 124
5 313 8 158 15 305 15 326 0 22 3 36 7 32 4 -4 82 -174 174 -379 214 -476 188
-463 315 -160 51 120 125 298 165 395 l74 177 7 -77 c4 -42 14 -196 22 -342
16 -294 14 -308 -41 -324 -17 -6 -34 -18 -36 -28 -5 -17 6 -18 179 -18 172 0
184 1 184 18 0 13 -12 22 -39 30 -27 9 -42 20 -50 40 -10 26 -51 607 -51 735
0 72 13 92 68 103 25 5 32 12 32 30 l0 24 -139 0 -138 0 -42 -102 c-24 -57
-93 -223 -153 -370 l-111 -268 -87 198 c-48 108 -121 274 -162 367 l-75 170
-141 3 -142 3 0 -25z"/>
<path d="M4570 3985 c0 -20 5 -25 24 -25 13 0 35 -9 50 -21 l26 -20 0 -398 c0
-440 1 -433 -65 -445 -26 -5 -35 -12 -35 -26 0 -19 9 -20 359 -20 l358 0 12
100 c16 148 15 162 -11 158 -16 -2 -25 -15 -36 -48 -38 -116 -89 -142 -272
-138 l-125 3 0 408 0 409 24 19 c13 10 34 19 47 19 19 0 24 5 24 25 l0 25
-190 0 -190 0 0 -25z"/>
<path d="M5847 3973 c-8 -21 -81 -213 -162 -428 -81 -214 -156 -404 -166 -421
-17 -28 -35 -40 -91 -58 -10 -3 -18 -12 -18 -21 0 -13 22 -15 150 -15 143 0
150 1 150 20 0 14 -7 20 -21 20 -69 0 -75 44 -23 189 l36 101 168 0 167 0 41
-108 c23 -60 42 -118 42 -129 0 -26 -21 -44 -63 -52 -19 -4 -33 -14 -35 -24
-3 -16 13 -17 197 -17 190 0 201 1 201 19 0 12 -10 21 -27 26 -62 15 -59 8
-273 548 l-153 387 -53 0 c-51 0 -52 -1 -67 -37z m92 -345 c35 -95 66 -179 68
-185 4 -10 -27 -13 -137 -13 -109 0 -141 3 -138 13 61 167 134 357 138 357 3
0 34 -78 69 -172z"/>
<path d="M6440 3986 c0 -20 6 -24 40 -30 24 -4 43 -14 50 -25 6 -12 10 -128
10 -304 0 -162 5 -309 11 -342 30 -166 133 -250 335 -277 147 -20 287 12 367
82 99 86 117 166 117 515 0 148 5 276 10 297 12 41 34 58 74 58 21 0 26 5 26
25 l0 25 -150 0 -150 0 0 -24 c0 -18 7 -25 28 -29 52 -11 63 -27 74 -112 15
-124 5 -539 -16 -594 -25 -69 -63 -111 -124 -139 -114 -52 -263 -37 -342 34
-68 61 -73 89 -78 430 -5 352 -2 369 67 380 35 6 41 10 41 30 l0 24 -195 0
-195 0 0 -24z"/>
<path d="M7594 3996 c-9 -22 2 -33 40 -40 62 -12 61 -3 64 -415 2 -249 0 -388
-8 -413 -9 -31 -17 -39 -53 -51 -23 -7 -43 -21 -45 -30 -3 -16 20 -17 276 -17
308 0 377 10 485 67 69 37 167 136 196 198 66 140 72 291 19 433 -27 73 -128
177 -210 215 -116 55 -151 60 -465 64 -258 4 -294 3 -299 -11z m607 -98 c103
-47 162 -121 194 -243 29 -114 13 -282 -38 -381 -33 -65 -79 -107 -152 -141
-54 -24 -74 -28 -192 -31 l-133 -4 0 404 c0 310 3 407 13 417 9 10 42 12 133
9 101 -4 129 -9 175 -30z"/>
<path d="M8710 3986 c0 -20 6 -24 39 -30 72 -11 71 -2 71 -439 0 -244 -4 -395
-10 -407 -6 -11 -28 -25 -50 -31 -28 -9 -40 -18 -40 -31 0 -17 18 -18 383 -18
l383 0 12 114 c16 150 16 146 -11 146 -19 0 -25 -8 -35 -44 -15 -59 -74 -120
-129 -135 -25 -7 -100 -10 -180 -9 l-138 3 -3 193 -2 192 133 0 c151 0 160 -4
175 -76 6 -29 13 -40 30 -42 22 -3 22 -2 22 148 0 150 0 151 -22 148 -15 -2
-24 -13 -31 -38 -17 -67 -25 -70 -174 -70 l-133 0 0 185 0 185 164 0 c190 0
201 -4 234 -93 14 -37 26 -53 41 -55 20 -3 21 1 21 90 0 51 -3 103 -6 116 l-6
22 -369 0 -369 0 0 -24z"/>
<path d="M2671 2402 c-69 -25 -99 -48 -138 -105 -37 -55 -57 -140 -48 -200 24
-145 113 -225 260 -235 127 -8 224 42 275 144 29 59 38 163 20 230 -16 56 -77
126 -134 154 -64 31 -167 36 -235 12z m146 -33 c38 -14 81 -56 106 -104 17
-32 21 -58 21 -130 1 -78 -3 -97 -25 -140 -36 -72 -79 -98 -151 -93 -71 5
-116 38 -152 110 -37 75 -37 191 0 266 41 83 123 121 201 91z"/>
<path d="M3403 2411 c-67 -17 -106 -54 -124 -115 -9 -32 -7 -47 6 -83 20 -51
55 -81 147 -122 87 -39 108 -60 108 -110 0 -53 -34 -81 -99 -81 -58 0 -107 29
-127 75 -23 57 -44 46 -44 -25 0 -51 3 -61 23 -71 31 -18 164 -23 215 -10 84
23 142 102 128 176 -11 56 -52 94 -151 140 -125 58 -153 102 -101 162 21 24
31 28 79 28 64 0 99 -24 118 -82 16 -51 34 -35 37 34 3 61 3 61 -30 72 -44 16
-145 22 -185 12z"/>
<path d="M1720 2396 c0 -8 10 -16 22 -18 32 -4 36 -30 36 -238 0 -208 -4 -234
-36 -238 -12 -2 -22 -10 -22 -18 0 -11 21 -14 105 -14 87 0 105 3 105 15 0 8
-9 15 -19 15 -11 0 -23 4 -26 10 -3 5 -6 56 -7 112 l0 103 126 3 126 3 0 -103
c0 -110 -4 -124 -34 -129 -11 -2 -21 -10 -24 -16 -3 -10 23 -13 107 -13 113 0
134 8 84 32 l-28 13 -3 213 c-3 221 2 252 38 252 11 0 20 7 20 15 0 13 -16 15
-107 13 -65 -2 -107 -7 -106 -13 1 -5 10 -12 20 -14 29 -5 33 -20 33 -118 l0
-93 -127 0 -128 0 5 102 c5 97 6 103 28 106 12 2 22 10 22 18 0 11 -21 14
-105 14 -84 0 -105 -3 -105 -14z"/>
<path d="M3840 2396 c0 -9 8 -16 20 -16 12 0 22 -9 25 -22 3 -13 4 -120 3
-238 -3 -214 -3 -215 -25 -218 -13 -2 -23 -10 -23 -18 0 -11 20 -14 100 -14
82 0 100 3 100 15 0 8 -9 15 -19 15 -26 0 -31 19 -31 111 l0 79 58 0 c74 0
154 36 182 82 25 42 27 119 3 160 -34 58 -80 72 -245 76 -130 3 -148 2 -148
-12z m260 -41 c16 -8 36 -25 44 -37 19 -27 21 -93 3 -128 -16 -32 -72 -60
-119 -60 l-38 0 0 113 c0 63 3 117 7 120 12 12 73 7 103 -8z"/>
<path d="M4470 2401 c0 -6 12 -16 28 -23 l27 -13 0 -230 0 -229 -24 -6 c-14
-3 -26 -11 -29 -18 -3 -9 24 -12 107 -12 92 0 111 3 111 15 0 8 -8 15 -18 15
-39 0 -42 16 -42 240 0 224 3 240 42 240 10 0 18 7 18 15 0 12 -19 15 -110 15
-62 0 -110 -4 -110 -9z"/>
<path d="M4900 2340 c0 -76 12 -89 33 -37 20 46 38 58 101 64 l56 6 0 -225 c0
-235 -1 -241 -44 -249 -11 -2 -21 -10 -24 -17 -3 -10 22 -12 115 -10 72 2 117
7 116 13 -1 6 -10 12 -20 14 -42 8 -43 15 -43 249 l0 225 60 -6 c69 -6 85 -15
102 -63 21 -59 38 -43 38 36 l0 70 -245 0 -245 0 0 -70z"/>
<path d="M5665 2175 c-49 -130 -95 -245 -102 -255 -8 -11 -23 -20 -34 -20 -10
0 -19 -7 -19 -15 0 -12 16 -15 85 -15 86 0 109 11 60 30 -30 12 -31 23 -4 94
l22 56 92 0 93 0 22 -54 c25 -64 23 -90 -8 -94 -12 -2 -22 -10 -22 -18 0 -11
21 -14 110 -14 91 0 110 3 110 15 0 8 -7 15 -15 15 -25 0 -45 39 -140 275
l-92 230 -35 3 -34 3 -89 -236z m143 18 l40 -103 -80 0 c-60 0 -79 3 -76 13 3
6 20 54 38 105 18 51 34 91 36 90 1 -2 20 -49 42 -105z"/>
<path d="M6260 2396 c0 -8 10 -16 23 -18 l22 -3 3 -231 2 -232 -30 -10 c-69
-25 -29 -32 174 -32 l203 0 7 38 c9 54 7 102 -3 102 -5 0 -18 -17 -28 -37 -25
-52 -53 -64 -143 -61 l-75 3 -3 191 c-3 220 3 267 36 272 12 2 22 10 22 18 0
11 -21 14 -105 14 -84 0 -105 -3 -105 -14z"/>
<path d="M6890 2395 c0 -8 8 -15 18 -15 39 0 42 -16 42 -240 0 -224 -3 -240
-42 -240 -10 0 -18 -7 -18 -15 0 -12 19 -15 110 -15 91 0 110 3 110 15 0 8 -8
15 -19 15 -38 0 -42 19 -39 246 l3 219 28 13 c50 24 29 32 -83 32 -91 0 -110
-3 -110 -15z"/>
<path d="M7310 2340 c0 -81 15 -93 41 -31 14 32 24 42 55 50 22 6 54 11 72 11
l32 0 0 -223 c0 -231 -3 -247 -42 -247 -10 0 -18 -7 -18 -15 0 -12 19 -15 110
-15 89 0 110 3 110 14 0 9 -12 16 -27 18 l-28 3 -3 234 -2 234 56 -6 c61 -6
85 -22 104 -68 22 -52 35 -35 32 41 l-4 70 -244 0 -244 0 0 -70z"/>
<path d="M8010 2397 c0 -6 12 -18 28 -24 17 -8 58 -58 110 -133 l82 -120 0
-98 c0 -104 -4 -118 -34 -123 -11 -2 -21 -10 -24 -16 -3 -10 23 -13 107 -13
92 0 111 3 111 15 0 8 -9 15 -20 15 -30 0 -40 31 -40 130 l0 92 78 119 c50 78
87 123 105 132 53 24 33 37 -58 37 -84 0 -104 -9 -65 -30 11 -6 20 -17 20 -25
0 -13 -97 -185 -104 -185 -2 0 -26 38 -55 84 -55 90 -63 121 -31 129 11 3 20
10 20 16 0 7 -38 11 -115 11 -86 0 -115 -3 -115 -13z"/>
</g>
</svg>
